<svg width="400" height="400" preserveAspectRatio="xMidYMid meet" xmlns="http://www.w3.org/2000/svg" xmlns:svg="http://www.w3.org/2000/svg" seed="6334824724549167320">
  <g fill-opacity="1" stroke="#000" stroke-width="2" transform="scale(4)">
    <g id="legs" stroke-linecap="round">
      <path id="bleg1" d="M30,75l-2.1,11.8"/>
      <path id="bleg2" d="M35,75l2.1,11.8"/>
      <path id="fleg1" d="M65,75l-2.1,11.8"/>
      <path id="fleg2" d="M70,75l2.1,11.8"/>
    </g>
    <g id="body" fill="#930">
      <ellipse cx="50" cy="50" rx="45" ry="35"/>
    </g>
    <g id="ears" fill="#930" stroke-width="1">
      <path id="ear1" d="M53,28a5,3 25 0,0 -6,7z"/>
      <path id="ear2" d="M75,28a5,3 -25 0,1 6,7z"/>
    </g>
    <g id="eyes" fill="#fff" stroke-width="1">
      <ellipse id="eye1" cx="58.5" cy="35" rx="3" ry="3"/>
      <ellipse id="eye2" cx="71.5" cy="36" rx="3" ry="3"/>
    </g>
    <g id="nose" fill="pink" stroke-width="1">
      <path d="M65,50l-3.5,-4h7z"/>
    </g>
    <g id="mouth" fill-opacity="0" stroke-width="1">
      <path id="lip1" d="M65,50a5,3 0 0,1 -10,0"/>
      <path id="lip2" d="M65,50a5,3 0 0,0 10,0"/>
      <ellipse id="speaker" fill="#000" fill-opacity="1" style="display:none;" cx="65" cy="53" rx="5" ry="3"/>
    </g>
    <g id="cheeks" fill-opacity="0" stroke-width="1">
      <path id="cheek1" d="M46,43a7,7 0 0,1 0,14"/>
      <path id="cheek2" d="M84,43a7,7 0 0,0 0,14"/>
    </g>
    <g id="glasses" fill-opacity="0">
      <path d="M62,35.5h6"/>
      <path d="M52,35.5l-8,5"/>
      <path d="M78,35.5l8,5"/>
      <circle cx="57" cy="35.5" r="5"/>
      <circle cx="73" cy="35.5" r="5"/>
    </g>
  </g>
</svg>