<svg width="400" height="400" preserveAspectRatio="xMidYMid meet" xmlns="http://www.w3.org/2000/svg" xmlns:svg="http://www.w3.org/2000/svg" seed="2775422040480279449">
  <g fill-opacity="1" stroke="#000" stroke-width="2" transform="scale(4)">
    <g id="legs" stroke-linecap="round">
      <path id="bleg1" d="M30,75l-2.1,11.8"/>
      <path id="bleg2" d="M35,75l2.1,11.8"/>
      <path id="fleg1" d="M65,75l-2.1,11.8"/>
      <path id="fleg2" d="M70,75l2.1,11.8"/>
    </g>
    <g id="body" fill="#ab1">
      <ellipse cx="50" cy="50" rx="44" ry="33"/>
    </g>
    <g id="ears" fill="#ab1" stroke-width="1">
      <path id="ear1" d="M53,28a5,3 25 0,0 -6,7z"/>
      <path id="ear2" d="M75,28a5,3 -25 0,1 6,7z"/>
    </g>
    <g id="eyes" fill="#fff" stroke-width="1">
      <ellipse id="eye1" cx="60.5" cy="35" rx="4" ry="4"/>
      <ellipse id="eye2" cx="69.5" cy="34" rx="4" ry="4"/>
    </g>
    <g id="nose" fill="pink" stroke-width="1">
      <path d="M65,50l-2.5,-4h5z"/>
    </g>
    <g id="mouth" fill-opacity="0" stroke-width="1">
      <path id="lip1" d="M65,50a4.5,2.5 0 0,1 -9,0"/>
      <path id="lip2" d="M65,50a4.5,2.5 0 0,0 9,0"/>
      <ellipse id="speaker" fill="#000" fill-opacity="1" style="display:none;" cx="65" cy="53" rx="5" ry="3"/>
    </g>
    <g id="cheeks" fill-opacity="0" stroke-width="1">
      <path id="cheek1" d="M52,48a2,2 0 0,1 0,4"/>
      <path id="cheek2" d="M78,48a2,2 0 0,0 0,4"/>
    </g>
    <g id="glasses" fill-opacity="0">
      <path d="M65,34.5h0"/>
      <path d="M53,34.5l-8,5"/>
      <path d="M77,34.5l8,5"/>
      <circle cx="59" cy="34.5" r="6"/>
      <circle cx="71" cy="34.5" r="6"/>
    </g>
    <g id="hat" class="tip">
      <g fill="#000" stroke="#999" stroke-width="1">
        <rect x="53" y="3" height="11" width="18"/>
        <rect x="46" y="14" height="7" width="31"/>
      </g>
    </g>
  </g>
</svg>