
<svg width="100" height="100" preserveAspectRatio="xMidYMid meet" xmlns="http://www.w3.org/2000/svg" xmlns:svg="http://www.w3.org/2000/svg">
<style type="text/css" >
<![CDATA[
@keyframes blink {
  50% {
    ry: 0.1
  }
}
.blink {
  animation: blink 2s infinite;
}
@keyframes scaler {
  30% {
    transform: scale(0.4)
  }
  50% {
    transform: scale(0.7)
  }
  70% {
    transform: scale(0.5)
  }
}
.talk {
  transform-origin: 50% 50%;
  animation: scaler 1s infinite alternate;
}
@keyframes wiggle {
  0% {
    transform: rotate(0deg)
  }
  25% {
    transform: rotate(10deg)
  }
  75% {
    transform: rotate(-10deg)
  }
  100% {
    transform: rotate(0deg)
  }
}
.wiggle {
  transform-origin: center bottom;
  animation: wiggle 1s linear infinite;
}
@keyframes walk {
  0% {
    transform: rotate(-10deg)
  }
  50% {
    transform: rotate(20deg)
  }
  100% {
    transform: rotate(-10deg)
  }
}
#legs > path {
  transform-origin: 0% 0%;
}
#bleg1 {
  transform: rotate(10deg);
}
#legs.walk #bleg1 {
  animation: walk 1s ease infinite reverse;
}
#bleg2 {
  transform: rotate(-10deg);
}
#legs.walk #bleg2 {
  animation: walk 1s ease 0.35s infinite;
}
#fleg1 {
  transform: rotate(10deg);
}
#legs.walk #fleg1 {
  animation: walk 1s ease 0.3s infinite reverse;
}
#fleg2 {
  transform: rotate(-10deg);
}
#legs.walk #fleg2 {
  animation: walk 1s ease 0.65s infinite;
}
]]>
</style>
<g id="icon">
  <g id="legs" class="walk" style="stroke:#000;stroke-width:2;stroke-linecap:round;"><path id="bleg1" d="M30,75 l0,10" transform="rotate(15,30,75)"/>
    <path id="bleg2" d="M35,75 l0,10" transform="rotate(-15,35,75)"/>
    <path id="fleg1" d="M65,75 l0,10" transform="rotate(15,65,75)"/>
    <path id="fleg2" d="M70,75 l0,10" transform="rotate(-15,70,75)"/>
  </g>
  <g style="fill-opacity:1;stroke:#000;stroke-width:2;fill:#fff;">
  <ellipse id="body" cx="50" cy="50" rx="45" ry="30"/>
  </g>
  <g id="eyes" style="stroke:#000;stroke-width:2;fill:#fff;">
    <ellipse class="blink" id="eye1" cx="60" cy="35" rx="3" ry="3"/>
    <ellipse class="blink" id="eye2" cx="70" cy="35" rx="3" ry="3"/>
  </g>
  <g id="nose" class="wiggle" style="stroke:#000;stroke-width:1;fill:pink;">
    <path d="M65,50 l-2,-5 l5,0 Z"/>
  </g>
  <g id="mouth" style="stroke:#000;stroke-width:1;fill-opacity:0;">
    <path id="lip1" d="M65,50 a6,5 0 0,1 -10,0"/>
    <path id="lip2" d="M65,50 a6,5 0 0,0 10,0"/>
    <ellipse id="speaker" class="talk" cx="65" cy="54" rx="5" ry="3" style="fill:#000;fill-opacity:1;"/>
  </g>
</g>
</svg>